<svg xmlns="http://www.w3.org/2000/svg" width="61" height="61" xml:space="preserve"><path fill="none" stroke="#FFF" stroke-width="1.8" stroke-miterlimit="10" d="M30.5 11.238c-7.82 0-14.182 6.362-14.182 14.184 0 2.039.418 3.987 1.24 5.789 3.546 7.759 10.345 15.951 12.344 18.277a.788.788 0 0 0 1.196 0c1.999-2.326 8.798-10.517 12.345-18.277a13.834 13.834 0 0 0 1.24-5.789c-.001-7.821-6.364-14.184-14.183-14.184zm0 21.551c-4.062 0-7.367-3.306-7.367-7.368s3.305-7.366 7.367-7.366 7.367 3.305 7.367 7.366c-.001 4.062-3.305 7.368-7.367 7.368z"/></svg>
