<svg xmlns="http://www.w3.org/2000/svg" width="61" height="61" xml:space="preserve"><g fill="none" stroke="#FFF" stroke-width="1.8" stroke-linecap="round" stroke-linejoin="round" stroke-miterlimit="10"><path d="M35.067 38.288c.66-.805.602-1.955-.133-2.555-.732-.598-1.869-.428-2.527.379l-2.691 3.287-.361-.357 3.392-4.148c.658-.807.6-1.955-.133-2.553-.734-.602-1.871-.43-2.53.377l-3.181 3.891-.361-.359 3.516-4.303c.66-.805.601-1.955-.131-2.553-.732-.598-1.871-.429-2.531.38l-3.306 4.042-.368-.367c.022-.023.049-.045.071-.072l8.295-10.142c.658-.807.598-1.958-.135-2.555-.731-.599-1.869-.43-2.528.378l-8.189 10.016-.272-.222 1.741-4.67c.364-.975-.089-2.055-1.007-2.396-.916-.342-1.965.177-2.329 1.152l-3.931 10.541h0l-.001.002-.646 1.734c-.099.27-.133.545-.117.811-.723 3.252-.039 4.873-.039 4.873l6.934 5.67c5.566-.953 9.146-4.955 9.146-4.955v-.004h0l4.352-5.322z"/><path d="M26.755 24.322c1.659-4.858 5.273-8.225 9.466-8.225 5.764 0 10.436 6.365 10.436 14.219 0 7.853-4.672 14.22-10.436 14.22-1.65 0-3.213-.521-4.6-1.451m4.601-21.907v5.29"/><path d="M36.165 15.961c.031-2.365-2.434-3.505-4.434-3.528-2.35-.031-3.816 1.42-5.316 3.087-1.421 1.576-2.223 2.694-4.383 3.251-1.076.277-2.366.391-3.488.255-2.646-.318-3.344-3.042-4.202-5.201"/></g></svg>
