<svg xmlns="http://www.w3.org/2000/svg" width="61" height="61" xml:space="preserve"><g fill="none" stroke="#FFF" stroke-width="1.8" stroke-miterlimit="10"><path d="M40.684 45.141a2.74 2.74 0 0 1-2.74 2.739H15.375a2.739 2.739 0 0 1-2.74-2.739V15.86a2.74 2.74 0 0 1 2.74-2.74h22.569a2.74 2.74 0 0 1 2.74 2.74v29.281zM25.819 25.042h11.65m-11.65-3.995h11.65m-11.65-3.996h11.65M15.124 29.319h22.345m-22.345 4.339h22.345m-22.345 4.34h22.345m-22.345 4.338h22.345"/><path d="M15.75 17.081h7.208v7.561H15.75zm30.189-3.047a2.391 2.391 0 0 1 2.4 2.317l-4.789-.104a2.39 2.39 0 0 1 2.389-2.213m2.409 5.011.017 22.372-4.822-.104-.012-22.374zM43.9 43.531l3.928.084-2.107 3.094z"/></g></svg>
