<svg xmlns="http://www.w3.org/2000/svg" width="61" height="61" xml:space="preserve"><g fill="none" stroke="#FFF" stroke-width="1.8" stroke-miterlimit="10"><path d="m45.779 43.771-7.832-4.598a3.067 3.067 0 0 0-1.452-.391c-.535 0-1.033.166-1.43.5l-2.494 2.096a2.038 2.038 0 0 1-.225.012c-3.457 0-10.655-8.67-9.642-11.628.007-.019 2.543-2.136 2.543-2.136.748-.629 1.013-1.951.583-2.892l-3.247-8.604a1.73 1.73 0 0 0-1.333-.615c-.414 0-.831.142-1.17.427 0 0-4.732 3.442-4.996 4.583-1.232 5.331 1.724 13.618 6.832 19.706 5.002 5.961 12.349 10.229 17.791 10.229.163 0 .325-.004.484-.012 1.169-.055 5.37-4.18 5.37-4.18a1.772 1.772 0 0 0 .218-2.497zM31.476 10.542s11.443 4.25 3.388 14.519"/><path d="M29.938 13.017s8.27 3.071 2.446 10.494"/><path d="M27.931 15.476s5.7 2.117 1.688 7.232"/></g></svg>
