<svg xmlns="http://www.w3.org/2000/svg" width="61" height="61" xml:space="preserve"><g fill="none" stroke="#FFF" stroke-width="1.8" stroke-linecap="round" stroke-linejoin="round" stroke-miterlimit="10"><path d="M22.063 24.676c-.672-2.584-.041-3.093.57-3.088.141.001.164-.001.286.035l.002-.057s-1.81-6.037 2.542-8.691c0 0-.765-.62-.706-1.513h0s1.995.227 3.907.23c.868.002 1.72-.042 2.359-.175a3.46 3.46 0 0 1 .771-.067c1.795.046 3.516 1.445 3.818 2.796 0 0 .027-.002.075-.002.567-.001 4.134.271 2.423 7.445l-.005.027c.082-.017.169-.028.257-.029.612-.008 1.248.497.574 3.088-.539 2.069-1.037 2.603-1.408 2.603a.504.504 0 0 1-.324-.143c-.26 1.628-.942 3.609-2.631 5.017-4.172 3.203-8.131.063-8.131.063-1.73-1.398-2.431-3.394-2.701-5.036a.455.455 0 0 1-.278.098c-.37-.008-.865-.548-1.4-2.601z"/><path d="M14.818 42.652s-.034 2.328.341 3.274c0 0 5.73 3.724 15.328 3.724l-.005-.216.018.216c9.598 0 15.327-3.724 15.327-3.724.375-.945.341-3.274.341-3.274.118-1.676-.023-5.063-2.956-5.808-3.936-1.001-7.133-3.252-7.133-3.252l-2.495 7.89h0l-.47 1.486-.008-.021-.41 1.258-1.314-3.731c3.326-4.641-.881-4.46-.881-4.46s-4.208-.182-.882 4.46l-1.328 3.761-.406-1.271-2.963-9.373s-3.197 2.252-7.133 3.252c-2.936.746-3.075 4.137-2.957 5.811l-.014-.002z"/></g></svg>
